<?xml version='1.0' encoding='UTF-8' standalone='no'?>
<!-- Created with Fritzing (http://www.fritzing.org/) -->
<svg xmlns="http://www.w3.org/2000/svg" width="0.6in" x="0in" version="1.2" y="0in"  height="0.3in" viewBox="0 0 600 300" baseProfile="tiny">
    <desc >
        <referenceFile >generic_sip_6_300mil_bread.svg</referenceFile>
    </desc>
    <g gorn="0.1"  id="breadboard">
        <rect width="600" x="0" y="0" fill="#303030" gorn="0.1.0"  height="270" id="middle"/>
        <rect width="600" x="0" y="0" fill="#3D3D3D" gorn="0.1.1"  height="24.6" id="top"/>
        <rect width="600" x="0" y="245.4" fill="#000000" gorn="0.1.2"  height="24.6" id="bottom"/>
        <polygon fill="#141414" points="600,0,592.5,24.6,592.5,245.4,600,270" gorn="0.1.3"  id="right"/>
        <polygon fill="#1F1F1F" points="0,0,7.5,24.6,7.5,245.4,0,270" gorn="0.1.4"  id="left"/>
        <polygon fill="#1C1C1C" points="50,85,7.5,84.6,5.6,105.8,5.6,135,50,135" gorn="0.1.5"  id="left-upper-rect"/>
        <polygon fill="#383838" points="7.5,185.5,50,185.5,50,135,5.6,135,5.6,164.2" gorn="0.1.6"  id="left-lower-rect"/>
        <path fill="#262626" gorn="0.1.7"  id="slot" d="M5.6,105.8l0,58.3c14.7,-1.7,26.2,-14,26.2,-29.2C31.8,119.7,20.4,107.5,5.6,105.8z"/>
        <path fill="#303030" gorn="0.1.8"  id="cover" d="M7.5,24.6L7.5,84.5c23.8,4.5,41.9,25.3,41.9,50.4c0,25.1,-18,46,-41.9,50.5L7.5,185.5l50,0L57.5,24.6L7.5,24.6z"/>
        <circle fill="#212121" cx="65"  cy="204.7" r="20.6"/>
        <text x="65" y="150" fill="#e6e6e6" font-family="OCRA" gorn="0.1.10"  text-anchor="start" stroke="none" id="label" font-size="80">IMU 10DOF</text>
        <rect width="30" x="35" y="256.6" fill="#8C8C8C" gorn="0.1.11"  height="43.4" id="connector0pin"/>
        <rect width="30" x="35" y="270" fill="#8C8C8C" gorn="0.1.12"  height="30" id="connector0terminal"/>
        <polygon fill="#8C8C8C" points="35,256.6,35,276.6,65,276.6,85,267.4,85,256.6" />
        <rect width="30" x="535" y="256.6" fill="#8C8C8C" gorn="0.1.14"  height="43.4" id="connector5pin"/>
        <rect width="30" x="535" y="270" fill="#8C8C8C" gorn="0.1.15"  height="30" id="connector5terminal"/>
        <polygon fill="#8C8C8C" points="515,256.6,515,267.4,535,276.6,565,276.6,565,256.6" />
        <rect width="30" x="135" y="256.6" fill="#8C8C8C" gorn="0.1.17"  height="43.4" id="connector1pin"/>
        <rect width="30" x="135" y="270" fill="#8C8C8C" gorn="0.1.18"  height="30" id="connector1terminal"/>
        <polygon fill="#8C8C8C" points="115,256.6,115,267.4,135,276.6,165,276.6,185,267.4,185,256.6" />
        <rect width="30" x="235" y="256.6" fill="#8C8C8C" gorn="0.1.20"  height="43.4" id="connector2pin"/>
        <rect width="30" x="235" y="270" fill="#8C8C8C" gorn="0.1.21"  height="30" id="connector2terminal"/>
        <polygon fill="#8C8C8C" points="215,256.6,215,267.4,235,276.6,265,276.6,285,267.4,285,256.6" />
        <rect width="30" x="335" y="256.6" fill="#8C8C8C" gorn="0.1.23"  height="43.4" id="connector3pin"/>
        <rect width="30" x="335" y="270" fill="#8C8C8C" gorn="0.1.24"  height="30" id="connector3terminal"/>
        <polygon fill="#8C8C8C" points="315,256.6,315,267.4,335,276.6,365,276.6,385,267.4,385,256.6" />
        <rect width="30" x="435" y="256.6" fill="#8C8C8C" gorn="0.1.26"  height="43.4" id="connector4pin"/>
        <rect width="30" x="435" y="270" fill="#8C8C8C" gorn="0.1.27"  height="30" id="connector4terminal"/>
        <polygon fill="#8C8C8C" points="415,256.6,415,267.4,435,276.6,465,276.6,485,267.4,485,256.6" />
    </g>
</svg>
